<?xml version="1.0" encoding="UTF-8"?>
<svg version="1.1" xmlns="http://www.w3.org/2000/svg" width="309" height="305">
<path d="M0 0 C101.97 0 203.94 0 309 0 C309 100.65 309 201.3 309 305 C207.03 305 105.06 305 0 305 C0 204.35 0 103.7 0 0 Z " fill="#FEFEFE" transform="translate(0,0)"/>
<path d="M0 0 C5.10009257 3.14194184 9.07983259 7.19736006 11.25 12.875 C11.4865356 15.7315386 11.62218519 18.50010746 11.6640625 21.359375 C11.68342865 22.17496887 11.7027948 22.99056274 11.7227478 23.83087158 C11.78239575 26.42880892 11.82886942 29.02679093 11.875 31.625 C11.91319342 33.38934194 11.95224595 35.15366551 11.9921875 36.91796875 C12.08808505 41.23682946 12.17217047 45.55577744 12.25 49.875 C17.364732 44.78355182 22.47667538 39.68932084 27.5851841 34.59162807 C29.95796162 32.22404454 32.3319167 29.85767057 34.70751953 27.49291992 C37.44542887 24.76720138 40.18004335 22.03821365 42.9140625 19.30859375 C43.75804596 18.46977158 44.60202942 17.6309494 45.47158813 16.76670837 C49.4877821 12.75089342 53.37428779 8.71995197 56.96054077 4.31263733 C60.23982947 0.65650944 63.33880002 -0.86929462 68.08203125 -1.50390625 C74.62878813 -1.75918859 79.91722921 -1.10198161 85.25 2.875 C87.5625 5.3125 87.5625 5.3125 89.25 7.875 C90.02887573 8.92627075 90.02887573 8.92627075 90.82348633 9.9987793 C92.70871858 13.79989535 92.72783871 17.30270793 92.76171875 21.45703125 C92.77966995 22.27121017 92.79762115 23.0853891 92.81611633 23.92424011 C92.8700821 26.51194152 92.90407025 29.09945993 92.9375 31.6875 C92.97068528 33.44729101 93.00517606 35.20705792 93.04101562 36.96679688 C93.12580042 41.26939893 93.19267665 45.57194801 93.25 49.875 C93.85055206 49.26556549 94.45110413 48.65613098 95.06985474 48.02822876 C100.73833727 42.27951321 106.41645903 36.54053192 112.10554695 30.81220436 C115.02985309 27.86704636 117.95033129 24.91829389 120.86230469 21.9609375 C123.67400802 19.10569151 126.49544324 16.26040159 129.32381821 13.42167282 C130.39978367 12.33833116 131.47222928 11.25148155 132.54101944 10.16106033 C134.04170439 8.63123002 135.5545592 7.11448952 137.07080078 5.60009766 C138.35653488 4.30103989 138.35653488 4.30103989 139.66824341 2.97573853 C144.49777886 -0.95398561 149.67117212 -1.63521217 155.72265625 -1.5078125 C162.04714892 -0.54985225 167.27590807 4.08271267 171.25 8.875 C173.38453235 13.87337055 173.54652728 18.34050569 173.54052734 23.67504883 C173.54724457 24.5392897 173.55396179 25.40353058 173.56088257 26.29396057 C173.57981984 29.14004325 173.58378467 31.98588955 173.5859375 34.83203125 C173.59236861 36.81971838 173.59909721 38.80740456 173.60610962 40.79508972 C173.61807187 44.95854892 173.62179154 49.12192522 173.62060547 53.28540039 C173.62040239 58.60484146 173.64769761 63.9237476 173.68214989 69.24306202 C173.704453 73.34818434 173.70844195 77.45317864 173.70738602 81.55835533 C173.7097371 83.51865163 173.71853268 85.47895172 173.73405075 87.439188 C173.75377897 90.18875567 173.74784602 92.93717912 173.73583984 95.68676758 C173.74707886 96.48655029 173.75831787 97.28633301 173.76989746 98.11035156 C173.68362118 105.93658425 170.84279485 113.28220515 165.25 118.875 C158.52285996 122.88768002 151.88559327 123.01256427 144.25 121.875 C138.4749403 118.94862446 134.78758372 113.75242621 132.25 107.875 C131.69280626 104.94185874 131.64536063 102.0778589 131.640625 99.09765625 C131.62408875 98.28630722 131.60755249 97.47495819 131.59051514 96.63902283 C131.54229916 94.07176954 131.520724 91.50510737 131.5 88.9375 C131.47181808 87.18681964 131.44188756 85.4361665 131.41015625 83.68554688 C131.33654794 79.41541332 131.28681281 75.14560284 131.25 70.875 C130.72239578 71.40260422 130.19479156 71.93020844 129.65119934 72.47380066 C92.76489258 109.36010742 92.76489258 109.36010742 90.3588562 111.76582336 C89.10265982 113.02221062 87.84678323 114.27891794 86.59158325 115.53630066 C81.65251645 120.48361176 79.26631924 122.32718139 72 122.4375 C66.43018425 122.3932632 62.05778183 121.92701096 57.97827148 117.85717773 C50.04734556 108.76109247 50.63313618 99.12057279 50.9375 87.75 C50.96262763 86.10940919 50.98543288 84.46878108 51.00585938 82.828125 C51.06047202 78.84281518 51.1464903 74.85932738 51.25 70.875 C45.50467223 75.76827131 40.08575204 80.9040294 34.76953125 86.2578125 C33.99365158 87.03510712 33.21777191 87.81240173 32.41838074 88.61325073 C29.96403844 91.07313896 27.51320918 93.53649275 25.0625 96 C23.40713455 97.66038908 21.7515376 99.32054741 20.09570312 100.98046875 C17.06082218 104.02347831 14.02725622 107.06778487 10.99536133 110.11376953 C10.02223495 111.08990204 10.02223495 111.08990204 9.02944946 112.08575439 C7.92563144 113.1956491 6.82463019 114.30836218 5.7281189 115.42547607 C0.90872637 120.31945774 -2.86003824 122.0570008 -9.75 122.3125 C-15.74713038 122.14200062 -18.95743468 120.80054462 -23.14453125 116.4140625 C-28.19952958 110.6743814 -29.04136853 106.71447572 -28.9453125 99.171875 C-28.9424826 98.33408508 -28.93965271 97.49629517 -28.93673706 96.63311768 C-28.92556349 93.96359837 -28.90046421 91.2944175 -28.875 88.625 C-28.86496654 86.81250485 -28.85584133 85.00000444 -28.84765625 83.1875 C-28.8256334 78.74987007 -28.79112304 74.31249237 -28.75 69.875 C-30.54275845 71.33199098 -32.33417229 72.79063655 -34.125 74.25 C-35.12273438 75.06210938 -36.12046875 75.87421875 -37.1484375 76.7109375 C-39.71360506 78.77765916 -39.71360506 78.77765916 -41.75 80.875 C-48.32915164 81.5747164 -55.2841937 82.00768281 -60.75 77.875 C-66.07731834 72.53478259 -69.03352399 68.3455755 -69.125 60.625 C-69.15335938 59.54734375 -69.18171875 58.4696875 -69.2109375 57.359375 C-68.05538754 48.62420076 -62.71464067 43.28260451 -56.66015625 37.39453125 C-55.87861679 36.61865158 -55.09707733 35.84277191 -54.29185486 35.04338074 C-51.8080298 32.58180476 -49.31064692 30.13453148 -46.8125 27.6875 C-45.1377488 26.0328348 -43.46391125 24.37724432 -41.79101562 22.72070312 C-38.71923908 19.68148748 -35.64238397 16.64763424 -32.55883789 13.62036133 C-26.81822705 7.98849871 -26.81822705 7.98849871 -21.25 2.1875 C-15.09085892 -3.5097055 -7.3110452 -3.78955843 0 0 Z " fill="#020202" transform="translate(95.75,86.125)"/>
<path d="M0 0 C0.66 0.33 1.32 0.66 2 1 C-12.85 15.85 -27.7 30.7 -43 46 C-43.66 45.67 -44.32 45.34 -45 45 C-44.56231293 44.56453354 -44.12462585 44.12906708 -43.67367554 43.68040466 C-39.09561971 39.1245688 -34.52116427 34.5651403 -29.94873047 30.00366211 C-28.24456307 28.30450602 -26.53949699 26.60625075 -24.83349609 24.90893555 C-22.37357354 22.46121926 -19.91696104 20.01022153 -17.4609375 17.55859375 C-16.70444916 16.80726669 -15.94796082 16.05593964 -15.16854858 15.28184509 C-11.35451278 11.46820923 -7.70797201 7.6153763 -4.30801392 3.42567444 C-3 2 -3 2 0 0 Z " fill="#232323" transform="translate(157,87)"/>
<path d="M0 0 C0.66 0.33 1.32 0.66 2 1 C-11.53 14.53 -25.06 28.06 -39 42 C-39.66 41.67 -40.32 41.34 -41 41 C-27.33333333 27.33333333 -13.66666667 13.66666667 0 0 Z " fill="#232323" transform="translate(77,86)"/>
</svg>
