<?xml version="1.0" standalone="no"?>
<!DOCTYPE svg PUBLIC "-//W3C//DTD SVG 20010904//EN"
 "http://www.w3.org/TR/2001/REC-SVG-20010904/DTD/svg10.dtd">
<svg version="1.0" xmlns="http://www.w3.org/2000/svg"
 width="136.000000pt" height="46.000000pt" viewBox="0 0 136.000000 46.000000"
 preserveAspectRatio="xMidYMid meet">

<g transform="translate(0.000000,46.000000) scale(0.100000,-0.100000)"
fill="#000000" stroke="none">
<path d="M451 306 c-38 -39 -52 -60 -49 -76 4 -33 33 -48 58 -32 19 11 20 10
20 -27 0 -41 20 -71 46 -71 9 0 42 25 75 57 l59 56 0 -44 c0 -86 35 -90 110
-14 l55 56 5 -47 c6 -53 28 -76 57 -58 23 14 41 158 27 213 -7 30 -14 37 -38
39 -23 3 -37 -5 -76 -47 -26 -28 -51 -51 -54 -51 -3 0 -6 15 -6 34 0 85 -40
90 -117 14 l-53 -52 0 40 c0 81 -45 85 -119 10z"/>
</g>
</svg>
